<svg xmlns="http://www.w3.org/2000/svg">
  <symbol id="x" viewBox="0 0 24 24">
    <path d="M4 4l16 16M20 4L4 20" fill="none" stroke="currentColor" stroke-width="2.2" stroke-linecap="round"/>
  </symbol>
  <symbol id="behance" viewBox="0 0 24 24">
    <path d="M4 6h6.2c2.2 0 3.6 1.1 3.6 2.9 0 1.1-.6 2-1.5 2.4 1.2.4 2 1.4 2 2.9 0 2.2-1.7 3.8-4.4 3.8H4V6zm3 4.7h2.7c.7 0 1.1-.4 1.1-1s-.4-1-1.2-1H7v2zm0 4.6h3c.8 0 1.3-.4 1.3-1.2s-.5-1.2-1.4-1.2H7v2.4z"/>
    <path d="M15.5 7.2h5v1.5h-5V7.2zm5.3 8.1c-.6 1.8-2 2.9-4 2.9-2.7 0-4.4-1.9-4.4-4.7 0-2.7 1.8-4.7 4.3-4.7 2.8 0 4.3 2.1 4.3 5.2v.5h-5.8c.1 1 .7 1.5 1.6 1.5.6 0 1-.2 1.3-.7h2.7zm-2.5-2.4c-.1-.9-.7-1.5-1.6-1.5-.8 0-1.4.6-1.5 1.5h3.1z"/>
  </symbol>
  <symbol id="linkedin" viewBox="0 0 24 24">
    <path d="M5 8.8h3.2V19H5V8.8zM6.6 4.2c1 0 1.7.7 1.7 1.6s-.7 1.7-1.8 1.7C5.5 7.5 4.8 6.8 4.8 5.9s.7-1.7 1.8-1.7zM10.2 8.8h3.1v1.4c.4-.8 1.5-1.7 3.1-1.7 3.3 0 3.9 2.2 3.9 5V19h-3.2v-4.9c0-1.2 0-2.7-1.7-2.7s-1.9 1.3-1.9 2.6v5h-3.2V8.8z"/>
  </symbol>
  <symbol id="facebook" viewBox="0 0 24 24">
    <path d="M14.2 8.2V6.7c0-.7.5-.9 1-.9h2.1V3h-2.9c-3.2 0-3.9 2.4-3.9 3.9v1.3H8v3.1h2.5V21h3.7v-9.7h2.8l.4-3.1h-3.2z"/>
  </symbol>
  <symbol id="instagram" viewBox="0 0 24 24">
    <path d="M12 6.3c1.8 0 2 0 2.8.1.7 0 1.1.1 1.4.3.4.1.7.3 1 .6.3.3.5.6.6 1 .2.3.3.7.3 1.4.1.8.1 1 .1 2.8s0 2-.1 2.8c0 .7-.1 1.1-.3 1.4-.1.4-.3.7-.6 1-.3.3-.6.5-1 .6-.3.2-.7.3-1.4.3-.8.1-1 .1-2.8.1s-2 0-2.8-.1c-.7 0-1.1-.1-1.4-.3-.4-.1-.7-.3-1-.6-.3-.3-.5-.6-.6-1-.2-.3-.3-.7-.3-1.4-.1-.8-.1-1-.1-2.8s0-2 .1-2.8c0-.7.1-1.1.3-1.4.1-.4.3-.7.6-1 .3-.3.6-.5 1-.6.3-.2.7-.3 1.4-.3.8-.1 1-.1 2.8-.1zm0-2.5c-1.9 0-2.1 0-2.9.1-.8 0-1.5.2-2.1.4-.6.2-1.1.5-1.6 1S4.6 6.3 4.4 7c-.2.6-.4 1.3-.4 2.1-.1.8-.1 1-.1 2.9s0 2.1.1 2.9c0 .8.2 1.5.4 2.1.2.6.5 1.1 1 1.6s1 .8 1.6 1c.6.2 1.3.4 2.1.4.8.1 1 .1 2.9.1s2.1 0 2.9-.1c.8 0 1.5-.2 2.1-.4.6-.2 1.1-.5 1.6-1s.8-1 1-1.6c.2-.6.4-1.3.4-2.1.1-.8.1-1 .1-2.9s0-2.1-.1-2.9c0-.8-.2-1.5-.4-2.1-.2-.6-.5-1.1-1-1.6s-1-.8-1.6-1c-.6-.2-1.3-.4-2.1-.4-.8-.1-1-.1-2.9-.1z"/>
    <path d="M12 7.8A4.2 4.2 0 1 0 12 16.2 4.2 4.2 0 0 0 12 7.8zm0 6.9A2.7 2.7 0 1 1 12 9.3a2.7 2.7 0 0 1 0 5.4z"/>
    <circle cx="16.5" cy="7.5" r="1"/>
  </symbol>
  <symbol id="mail" viewBox="0 0 24 24">
    <path d="M4 6h16c.6 0 1 .4 1 1v10c0 .6-.4 1-1 1H4c-.6 0-1-.4-1-1V7c0-.6.4-1 1-1zm8 7.2L5.4 8H5v8h14V8h-.4L12 13.2zM7.3 8l4.7 3.7L16.7 8H7.3z"/>
  </symbol>
</svg>
